<?xml version="1.0" standalone="no"?><!DOCTYPE svg PUBLIC "-//W3C//DTD SVG 1.1//EN" "http://www.w3.org/Graphics/SVG/1.1/DTD/svg11.dtd"><svg t="1585540242050" class="icon" viewBox="0 0 1024 1024" version="1.1" xmlns="http://www.w3.org/2000/svg" p-id="3256" xmlns:xlink="http://www.w3.org/1999/xlink" width="128" height="128"><defs><style type="text/css"></style></defs><path d="M370.6 388.2m-142.1 0a142.1 142.1 0 1 0 284.2 0 142.1 142.1 0 1 0-284.2 0Z" fill="#D3CAFF" p-id="3257"></path><path d="M557.2 282.9m-36.8 0a36.8 36.8 0 1 0 73.6 0 36.8 36.8 0 1 0-73.6 0Z" fill="#D3CAFF" p-id="3258"></path><path d="M677.8 554.7m-58.2 0a58.2 58.2 0 1 0 116.4 0 58.2 58.2 0 1 0-116.4 0Z" fill="#D3CAFF" p-id="3259"></path><path d="M531.3 534.7c-3.6 0-7.3-1.4-10.1-4.2-5.6-5.6-5.6-14.6 0-20.1L630.6 401c5.6-5.6 14.6-5.6 20.1 0 5.6 5.6 5.6 14.6 0 20.1L541.3 530.5c-2.8 2.8-6.4 4.2-10 4.2z" fill="#D46CFF" p-id="3260"></path><path d="M406.9 719.4c-34.1 0-68.2-13-94.1-38.9-51.9-51.9-51.9-136.3 0-188.2l138.6-138.6c5.6-5.6 14.6-5.6 20.1 0s5.6 14.6 0 20.1L332.9 512.4c-40.8 40.8-40.8 107.2 0 148s107.2 40.8 148 0L695.3 446c25.9-25.9 25.9-68 0-93.8-25.1-25.1-68.8-25-93.8 0l-207 207c-10.8 10.7-10.8 28.2 0 39 10.7 10.7 28.2 10.7 39 0l38-37.9c5.6-5.6 14.6-5.6 20.1 0 5.6 5.6 5.6 14.6 0 20.1l-38 37.9c-21.8 21.8-57.4 21.8-79.2 0-21.8-21.8-21.8-57.4 0-79.2l207-207c36.9-36.9 97.1-37 134 0 37 37 36.9 97.1 0 134L501 680.5c-25.9 26-60 38.9-94.1 38.9z" fill="#3F08C4" p-id="3261"></path></svg>